<svg xmlns="http://www.w3.org/2000/svg" width="429" height="69.36152568456829" viewBox="0 0 369.88524590163934 59.803741221327314" class="looka-1j8o68f"><defs id="SvgjsDefs3437"></defs><g id="SvgjsG3438" featurekey="monogramFeature-0" transform="matrix(0.8165339199866719,0,0,0.8165339199866719,-0.04381708826420788,-14.536821449739385)" fill="#ff7e67"><path d="M29.88 35.94 c1.02 -0.36 2.7 -1.26 3.12 -3.18 c0.48 -2.28 -0.6 -3.84 -3.36 -4.32 c-3.06 -0.54 -9.3 0.54 -15.18 3.3 c-5.04 2.4 -10.32 6.06 -11.28 10.2 c-0.9 4.14 1.14 7.38 7.08 12.9 c1.74 1.62 3.24 3.06 4.5 4.38 c6.54 -2.64 19.08 -6.18 20.52 -6.48 c1.56 -0.36 1.86 0.36 0.24 0.66 c-1.38 0.3 -13.26 3.72 -19.98 6.6 c4.62 4.86 6.18 7.98 5.58 11.82 c-0.72 4.8 -6.66 7.5 -12.84 6.9 c-5.94 -0.54 -8.7 -4.02 -8.16 -7.2 c0.78 -4.2 6.18 -8.04 12.06 -11.1 c0.36 -0.24 0.9 -0.42 1.38 -0.66 c-1.14 -1.2 -2.58 -2.58 -4.14 -4.14 c-6.6 -6.24 -8.88 -9.48 -7.92 -13.92 s4.62 -7.8 12.24 -11.16 c7.68 -3.42 12.9 -3.78 16.14 -3.24 c3.54 0.6 4.86 2.94 4.26 5.76 c-0.6 2.52 -3.18 3.78 -3.9 3.84 c-0.72 0.12 -1.08 -0.66 -0.36 -0.96 z M19.74 71.52 c0.48 -3 -0.6 -5.76 -5.4 -10.98 c-0.54 0.24 -0.96 0.48 -1.38 0.72 c-7.38 4.02 -10.98 7.02 -11.58 10.26 c-0.48 2.76 2.04 5.46 6.96 5.82 c6 0.36 10.8 -2.46 11.4 -5.82 z M66.11099999999999 81.06 c0.18 -0.66 0.42 -4.02 0.66 -6.54 l-0.3 -1.92 c-0.66 -4.14 -5.76 -9.18 -11.82 -11.88 c-1.98 -0.84 -5.34 -2.28 -8.04 -3.54 c-6.9 11.52 -12.66 22.68 -15.72 29.82 c-0.9 2.1 -1.92 1.2 -1.5 0.12 c3.72 -8.76 7.38 -16.14 15.9 -30.54 c-1.14 -0.48 -2.1 -0.96 -2.58 -1.2 c-1.8 -0.9 -1.38 -3.9 5.7 -4.02 l1.68 -2.7 c11.52 -19.02 23.28 -27.36 24.96 -27.18 s2.58 1.26 2.22 3.06 c-0.3 1.8 -3.24 13.14 -6.12 27.54 c0.78 0.18 1.68 0.42 2.58 0.9 c1.26 0.72 4.2 1.62 -2.58 0.72 l-0.3 0 c-2.04 10.8 -2.34 13.92 -2.82 20.34 c-0.06 0.18 0 0.36 -0.06 0.54 c0.6 3.9 0.48 4.44 0.42 5.22 c-0.06 0.9 -1.2 1.86 -1.62 1.8 s-0.84 0.06 -0.66 -0.54 z M50.150999999999996 51.36 c7.2 -0.06 18.6 0.48 19.86 0.54 c3 -15.3 6.12 -26.28 6.24 -27.36 c0.12 -1.02 0.24 -1.98 -0.84 -2.1 c-1.14 -0.12 -15.66 13.74 -24 26.94 z M55.071 59.82 c7.44 3.54 10.8 7.26 12.06 10.74 c0.36 -3.84 0.72 -7.38 2.52 -17.04 c-6.48 -0.66 -15.24 -0.6 -20.52 -0.48 c-0.66 1.02 -1.26 2.04 -1.86 3.06 z M43.550999999999995 54.36 l2.4 1.14 l1.44 -2.4 c-4.2 0.3 -4.32 1.14 -3.84 1.26 z"></path></g><g id="SvgjsG3439" featurekey="nameFeature-0" transform="matrix(1.079896389756693,0,0,1.079896389756693,81.7041242807985,-12.958754617341414)" fill="#ffffff"><path d="M4.92 40 l-3.72 -3.72 l0 -5.24 l5.04 0 l0 3.16 l0.76 0.76 l4.08 0 l0.76 -0.76 l0 -4.92 l-0.76 -0.76 l-6.16 0 l-3.72 -3.72 l0 -9.08 l3.72 -3.72 l8.24 0 l3.72 3.72 l0 5.24 l-5.04 0 l0 -3.16 l-0.76 -0.76 l-4.08 0 l-0.76 0.76 l0 4.92 l0.76 0.76 l6.16 0 l3.72 3.72 l0 9.08 l-3.72 3.72 l-8.24 0 z M25.638 40 l0 -4.48 l0.84 -0.56 l0 -17.92 l-0.84 -0.56 l0 -4.48 l6.72 0 l0 4.48 l-0.84 0.56 l0 6.44 l6.16 0 l0 -6.44 l-0.84 -0.56 l0 -4.48 l6.72 0 l0 4.48 l-0.84 0.56 l0 17.92 l0.84 0.56 l0 4.48 l-6.72 0 l0 -4.48 l0.84 -0.56 l0 -6.44 l-6.16 0 l0 6.44 l0.84 0.56 l0 4.48 l-6.72 0 z M56.876 40 l-3.72 -3.72 l0 -19.24 l-0.84 -0.56 l0 -4.48 l6.72 0 l0 4.48 l-0.84 0.56 l0 17.16 l0.76 0.76 l4.64 0 l0.76 -0.76 l0 -17.16 l-0.84 -0.56 l0 -4.48 l6.72 0 l0 4.48 l-0.84 0.56 l0 19.24 l-3.72 3.72 l-8.8 0 z M78.994 40 l0 -4.48 l0.84 -0.56 l0 -17.92 l-0.84 -0.56 l0 -4.48 l14.56 0 l0 5.88 l-4.48 0 l-0.56 -0.84 l-3.64 0 l0 6.44 l6.44 0 l0 5.04 l-6.44 0 l0 6.44 l3.64 0 l0.56 -0.84 l4.48 0 l0 5.88 l-14.56 0 z M102.312 40 l0 -4.48 l0.84 -0.56 l0 -17.92 l-0.84 -0.56 l0 -4.48 l12.52 0 l3.72 3.72 l0 8.24 l-2.04 2.04 l2.04 2.04 l0 8.24 l-3.72 3.72 l-12.52 0 z M108.192 34.96 l4.56 0 l0.76 -0.76 l0 -4.08 l-1.6 -1.6 l-3.72 0 l0 6.44 z M108.192 23.48 l3.72 0 l1.6 -1.6 l0 -4.08 l-0.76 -0.76 l-4.56 0 l0 6.44 z M140.068 40 l0 -4.48 l0.84 -0.56 l3.64 -17.92 l-0.84 -0.56 l0 -4.48 l10.64 0 l0 4.48 l-0.84 0.56 l3.64 17.92 l0.84 0.56 l0 4.48 l-4.96 0 l-1.24 -6.16 l-5.52 0 l-1.24 6.16 l-4.96 0 z M147.308 28.8 l3.44 0 l-1.72 -8.56 z M165.946 40 l0 -4.48 l0.84 -0.56 l0 -17.92 l-0.84 -0.56 l0 -4.48 l6.2 0 l5.84 14.96 l0 -9.92 l-0.84 -0.56 l0 -4.48 l6.72 0 l0 4.48 l-0.84 0.56 l0 22.96 l-5.36 0 l-5.84 -14.96 l0 9.92 l0.84 0.56 l0 4.48 l-6.72 0 z M196.144 40 l-3.6 -23.04 l-0.72 -0.48 l0 -4.48 l5.04 0 l2.52 16.12 l2.52 -16.12 l4.76 0 l2.52 16.12 l2.52 -16.12 l5.04 0 l0 4.48 l-0.72 0.48 l-3.6 23.04 l-6.48 0 l-1.64 -10.6 l-1.68 10.6 l-6.48 0 z M223.90200000000002 40 l0 -4.48 l0.84 -0.56 l3.64 -17.92 l-0.84 -0.56 l0 -4.48 l10.64 0 l0 4.48 l-0.84 0.56 l3.64 17.92 l0.84 0.56 l0 4.48 l-4.96 0 l-1.24 -6.16 l-5.52 0 l-1.24 6.16 l-4.96 0 z M231.142 28.8 l3.44 0 l-1.72 -8.56 z M249.78 40 l0 -4.48 l0.84 -0.56 l0 -17.92 l-0.84 -0.56 l0 -4.48 l12.8 0 l3.72 3.72 l0 10.2 l-2.16 2.2 l1.72 6.68 l1 0.72 l0 4.48 l-6.88 0 l0 -4.48 l0.72 -0.48 l-1.4 -5.4 l-3.64 0 l0 5.32 l0.84 0.56 l0 4.48 l-6.72 0 z M255.66000000000003 24.6 l4.84 0 l0.76 -0.76 l0 -6.04 l-0.76 -0.76 l-4.84 0 l0 7.56 z"></path></g><g id="SvgjsG3440" featurekey="sloganFeature-0" transform="matrix(0.6913927157846129,0,0,0.6913927157846129,87.54835196576667,45.84759851036955)" fill="#ff7e67"><path d="M9.6875 7.939 l-5.6055 0 l0 4.2871 l4.873 0 l0 1.748 l-4.873 0 l0 6.0254 l-1.9824 0 l0 -13.809 l7.5879 0 l0 1.748 z M30.629657421875002 20 l-3.5742 -6.2109 l-1.9336 0 l0 6.2109 l-1.9434 0 l0 -13.809 l4.6484 0 c2.8906 0 4.209 1.7676 4.209 3.9355 c0 1.9238 -1.1328 3.2617 -3.0273 3.584 l3.8965 6.2891 l-2.2754 0 z M25.121857421875 7.871 l0 4.4336 l2.4414 0 c1.7969 0 2.6074 -0.89844 2.6074 -2.207 c0 -1.2891 -0.81055 -2.2266 -2.6074 -2.2266 l-2.4414 0 z M52.31398984375 20.18555 c-3.916 0 -6.9043 -2.6953 -6.9043 -7.0996 c0 -4.3945 2.9883 -7.0801 6.9043 -7.0801 c3.8965 0 6.8945 2.6855 6.8945 7.0801 c0 4.4043 -2.998 7.0996 -6.8945 7.0996 z M52.31398984375 18.3594 c2.7637 0 4.9512 -1.9141 4.9512 -5.2734 c0 -3.3301 -2.1875 -5.2441 -4.9512 -5.2441 c-2.7734 0 -4.9707 1.9141 -4.9707 5.2441 c0 3.3594 2.1973 5.2734 4.9707 5.2734 z M82.386712890625 6.191000000000001 l1.9336 0 l0 13.809 l-2.0996 0 l-7.2168 -10.957 l0 10.957 l-1.9238 0 l0 -13.809 l2.0801 0 l7.2266 10.908 l0 -10.908 z M106.5029046875 6.191000000000001 l0 1.748 l-3.4961 0 l0 12.061 l-1.9238 0 l0 -12.061 l-3.5059 0 l0 -1.748 l8.9258 0 z M127.269312109375 7.939 l-5.5273 0 l0 4.2969 l4.873 0 l0 1.7383 l-4.873 0 l0 4.2676 l5.5273 0 l0 1.7578 l-7.5098 0 l0 -13.809 l7.5098 0 l0 1.748 z M150.49633203125 6.191000000000001 l1.9336 0 l0 13.809 l-2.0996 0 l-7.2168 -10.957 l0 10.957 l-1.9238 0 l0 -13.809 l2.0801 0 l7.2266 10.908 l0 -10.908 z M167.259023828125 20 l0 -13.809 l4.5508 0 c4.248 0 6.4063 2.8516 6.4063 6.8945 c0 4.0723 -2.1582 6.9141 -6.4063 6.9141 l-4.5508 0 z M169.202423828125 18.2422 l2.5293 0 c3.0176 0 4.4531 -2.002 4.4531 -5.1563 c0 -3.1348 -1.4355 -5.1465 -4.4531 -5.1465 l-2.5293 0 l0 10.303 z M207.961660546875 20 l0 -13.809 l4.5508 0 c4.248 0 6.4063 2.8516 6.4063 6.8945 c0 4.0723 -2.1582 6.9141 -6.4063 6.9141 l-4.5508 0 z M209.905060546875 18.2422 l2.5293 0 c3.0176 0 4.4531 -2.002 4.4531 -5.1563 c0 -3.1348 -1.4355 -5.1465 -4.4531 -5.1465 l-2.5293 0 l0 10.303 z M240.34914609375 7.939 l-5.5273 0 l0 4.2969 l4.873 0 l0 1.7383 l-4.873 0 l0 4.2676 l5.5273 0 l0 1.7578 l-7.5098 0 l0 -13.809 l7.5098 0 l0 1.748 z M262.824166015625 6.191000000000001 l2.0508 0 l-5.0781 13.809 l-2.0313 0 l-5.0586 -13.809 l2.041 0 l4.043 11.426 z M285.6513921875 7.939 l-5.5273 0 l0 4.2969 l4.873 0 l0 1.7383 l-4.873 0 l0 4.2676 l5.5273 0 l0 1.7578 l-7.5098 0 l0 -13.809 l7.5098 0 l0 1.748 z M301.515412109375 18.2422 l4.7168 0 l0 1.7578 l-6.6602 0 l0 -13.809 l1.9434 0 l0 12.051 z M325.44582578125 20.18555 c-3.916 0 -6.9043 -2.6953 -6.9043 -7.0996 c0 -4.3945 2.9883 -7.0801 6.9043 -7.0801 c3.8965 0 6.8945 2.6855 6.8945 7.0801 c0 4.4043 -2.998 7.0996 -6.8945 7.0996 z M325.44582578125 18.3594 c2.7637 0 4.9512 -1.9141 4.9512 -5.2734 c0 -3.3301 -2.1875 -5.2441 -4.9512 -5.2441 c-2.7734 0 -4.9707 1.9141 -4.9707 5.2441 c0 3.3594 2.1973 5.2734 4.9707 5.2734 z M351.534448828125 6.191000000000001 c2.5293 0 4.1602 1.9141 4.1602 4.2773 c0 2.3926 -1.6309 4.2383 -4.1602 4.2383 l-3.3789 0 l0 5.293 l-1.9434 0 l0 -13.809 l5.3223 0 z M351.241448828125 13.0273 c1.6211 0 2.5293 -1.0449 2.5293 -2.5879 c0 -1.4844 -0.9082 -2.5781 -2.5293 -2.5781 l-3.0859 0 l0 5.166 l3.0859 0 z M376.79299375 7.939 l-5.5273 0 l0 4.2969 l4.873 0 l0 1.7383 l-4.873 0 l0 4.2676 l5.5273 0 l0 1.7578 l-7.5098 0 l0 -13.809 l7.5098 0 l0 1.748 z M398.164813671875 20 l-3.5742 -6.2109 l-1.9336 0 l0 6.2109 l-1.9434 0 l0 -13.809 l4.6484 0 c2.8906 0 4.209 1.7676 4.209 3.9355 c0 1.9238 -1.1328 3.2617 -3.0273 3.584 l3.8965 6.2891 l-2.2754 0 z M392.657013671875 7.871 l0 4.4336 l2.4414 0 c1.7969 0 2.6074 -0.89844 2.6074 -2.207 c0 -1.2891 -0.81055 -2.2266 -2.6074 -2.2266 l-2.4414 0 z"></path></g></svg>